<svg viewBox="0 0 400 300" xmlns="http://www.w3.org/2000/svg" xmlns:xlink="http://www.w3.org/1999/xlink"><linearGradient id="a" gradientUnits="userSpaceOnUse" x1="190.9" x2="199.22" y1="150.33" y2="134.35"><stop offset="0" stop-color="#aa4200" stop-opacity="0"/><stop offset=".98" stop-color="#aa003d"/></linearGradient><linearGradient id="b" x1="119.74" x2="131.29" xlink:href="#a" y1="180.27" y2="164.14"/><linearGradient id="c" x1="64.72" x2="76.26" xlink:href="#a" y1="205.79" y2="189.66"/><linearGradient id="d" x1="156.37" x2="164" xlink:href="#a" y1="256.71" y2="243.63"/><linearGradient id="e" gradientUnits="userSpaceOnUse" x1="277.44" x2="286.53" y1="195.47" y2="182.77"><stop offset="0" stop-color="#fff" stop-opacity="0"/><stop offset=".98" stop-color="#aa003d"/></linearGradient><path d="m29.91 188.24c2.23-1.29 155 90.48 156.42 89.66l163.18-93.52-157.81-89.51z" fill="#77cc58"/><path d="m218.2 167.42c5.71-3.07 20.07-11.3 25.74-14.44l-69.65-39.58-25.74 13.77c5.97 3.13 61.39 35.13 69.65 40.25z" fill="url(#a)" opacity=".32"/><path d="m129.85 187.58c5.71-3.07 25.69-15.71 31.36-18.86l-40.21-14.44-25.7 13.72c5.97 3.17 26.29 14.47 34.55 19.58z" fill="url(#b)" opacity=".32"/><path d="m74.83 213.1c5.71-3.07 25.69-15.71 31.36-18.86l-40.19-14.45-25.73 13.77c5.97 3.13 26.3 14.44 34.56 19.54z" fill="url(#c)" opacity=".32"/><path d="m170.95 267.68c9.35-5 42.11-25.76 51.4-30.92l-65.85-23.66-42.2 22.57c9.79 5.12 43.11 23.63 56.65 32.01z" fill="url(#d)" opacity=".32"/><path d="m285.58 177.8c-5 3.09-17 8.16-21.73 11 4.84 2.67 13.68 9.61 17 11.65 3.22-1.74 19.14-5.66 23.51-18.16z" fill="url(#e)" opacity=".32"/><path d="m114.3 112.32v51.73s49.72 2.76 49.72 0v-51.73" fill="#68e1fd"/><ellipse cx="139.16" cy="163.61" fill="#68e1fd" rx="24.86" ry="11.35"/><ellipse cx="139.16" cy="112.32" fill="#3129a3" rx="24.86" ry="11.35"/><path d="m123.67 121.15.17.09c1 .33 1.92.63 2.9.88l-6.74-56.65s-1.41-.78-3.46.64l6.92 54.89z" fill="#f78b72"/><path d="m131.39 122.91 2.11-53.17s-1.27-1-3.52.09l-1.72 52.64a27.86 27.86 0 0 0 3.13.44z" fill="#f78b72"/><path d="m139.16 123.68 6.84-55.44 13.84 7.31-5.6 46.57a42.29 42.29 0 0 1 -15.08 1.56z" fill="#fcb749"/><path d="m167.02 39.98v79.2l22.8 13.04 25.74-15.2v-79.21" fill="#ff734d"/><path d="m167.02 39.98 26.45-15.06 22.09 12.89-25.74 15.21z" fill="#ffb5a4"/><path d="m189.82 53.02v79.2l25.74-15.2v-79.21z" fill="#f78b72"/><path d="m216.27 54.63-26.45 15.06v62.72l22.79 13.04 25.74-15.21v-62.72z" fill="#68e1fd"/><path d="m189.82 69.69 26.45-15.06 22.08 12.89-25.74 15.21z" fill="#fff" opacity=".49"/><path d="m212.61 82.73v62.72l25.74-15.21v-62.72z" opacity=".2"/><path d="m212.61 116.6v29.23l22.8 13.04 25.73-15.21v-29.22" fill="#ffad4a"/><path d="m212.61 116.6 26.45-15.06 22.08 12.9-25.73 15.2z" fill="#fd9"/><path d="m235.41 129.64v29.23l25.73-15.21v-29.22z" fill="#ffc36c"/><path d="m128.69 223.27 93.15-53.45a6.52 6.52 0 0 1 6.54 0l49.71 29.08a3.84 3.84 0 0 1 0 6.63l-92.16 53.32a8.61 8.61 0 0 1 -8.71-.06l-48.56-28.94a3.84 3.84 0 0 1 .03-6.58z" fill="#e75a59"/><path d="m128.69 219.06 93.15-53.45a6.52 6.52 0 0 1 6.54 0l49.71 29.08a3.84 3.84 0 0 1 0 6.63l-92.16 53.32a8.61 8.61 0 0 1 -8.71-.06l-48.56-28.94a3.84 3.84 0 0 1 .03-6.58z" fill="#ffdddc"/><path d="m219.57 172.29c.51.17 47.57 27.62 47.57 27.62l-78.59 46-47.48-27.41z" fill="#fff"/><path d="m168.26 241.59a1.21 1.21 0 0 0 .37-1.76 8.9 8.9 0 0 0 -2.29-1.73c-.8-.5-1.64-.94-2.46-1.42l-6.33-3.68-5.19-3a2.69 2.69 0 0 0 -2.3-.25 2.72 2.72 0 0 0 -1.34 1 1.11 1.11 0 0 0 .51 1.59l9.57 5.54 4.12 2.39 2.39 1.4a2.88 2.88 0 0 0 2.44.24 2.1 2.1 0 0 0 .51-.32z" fill="#e75a59"/><ellipse cx="144.61" cy="227.28" fill="#e75a59" rx="1.66" ry="1.37"/><path d="m298 173.37s.12 6.14-.61 6.52-5.37 6.42-5.69 7.37c-1.07 3.15 4.75 4.54 6.84 3.47s5.59-7 5.83-8.47 2-10.68 2-10.68" fill="#663a12"/><path d="m289.23 168s.12 6.14-.61 6.52-8.31 4.87-8.69 5.79c-1.21 2.93 4.69 4 6.78 3s8.65-4.9 8.9-6.4 2-10.68 2-10.68" fill="#663a12"/><path d="m312.82 108.86s4.4 6.9 3.81 13.09-6.78 55.43-10.76 54.93-6.36.07-8.44-5.14c0 0-6.68 1.52-8.81-3.79 0 0 1.61-46.19 5.41-53.44s18.79-5.65 18.79-5.65z" fill="#963626"/><path d="m255.85 90.77a21.06 21.06 0 0 1 3.38-.56 18.84 18.84 0 0 0 -3.45.35c-1.19.19-1.33-1.67-.14-1.87l.59-.09a1 1 0 0 1 .61-1.58 18.35 18.35 0 0 1 7.74.71 15.58 15.58 0 0 1 .05-2.84.83.83 0 0 1 .19-.44 1 1 0 0 1 1.85.25c.26 1.5.18 3 .44 4.52a5.89 5.89 0 0 0 .2.79q1.73 1.8 3.41 3.64c.79.87-.66 1.9-1.47 1.13a1.1 1.1 0 0 1 -.5.41l.14.18a.84.84 0 0 1 .1.84l.13.13c.86.84-.34 2.28-1.2 1.43l-.3-.3a.75.75 0 0 1 -1.1-.3 8.81 8.81 0 0 0 -2.9-2.89l-.37-.25a11.85 11.85 0 0 0 -3.15-.61c-.8.2-1.59.44-2.37.69a.93.93 0 0 1 -.73-1.71l-.51.11c-1.17.31-1.81-1.45-.64-1.74z" fill="#ffc388"/><path d="m256.07 88.35a20.7 20.7 0 0 1 3.72-.17c.3 0 .34.49 0 .48a20.7 20.7 0 0 0 -3.72.17c-.26.04-.3-.44 0-.48z" fill="#663a12"/><path d="m255.9 90.25a25.65 25.65 0 0 1 4-.28c.3 0 .34.48 0 .48a25.64 25.64 0 0 0 -4 .28c-.27.04-.3-.44 0-.48z" fill="#663a12"/><path d="m261.17 90.87a4.87 4.87 0 0 1 4.3.82c.26.17-.05.53-.31.37a4.35 4.35 0 0 0 -3.83-.73.24.24 0 0 1 -.16-.46z" fill="#663a12"/><path d="m260.41 90.76a3.33 3.33 0 0 1 1.79-2.58c.28-.12.44.33.16.45a2.85 2.85 0 0 0 -1.49 2.22c-.05.3-.52.21-.46-.09z" fill="#663a12"/><path d="m256.58 92a10.12 10.12 0 0 1 3.06-.83c.31 0 .34.44 0 .48a9.71 9.71 0 0 0 -2.94.8c-.24.11-.4-.34-.12-.45z" fill="#663a12"/><path d="m277 88.3-2.2 13.43s1.67 5 5.27 5.65 6.29-16.06 6.29-16.06" fill="#fcb749"/><path d="m287.64 81.11a34.56 34.56 0 0 1 8.17 1.73c3.57 1.16 19 23.77 17 26s-11.59 6.77-17.32 5.52-19.11-23.53-18.49-26.06c1.44-5.81 5.93-5.83 5.93-5.83" fill="#fcb749"/><path d="m277.45 75.14s-1 8.52 2 10 6.43-1.66 7.42-3.51 2-11.22-3.74-10.59-5.68 4.1-5.68 4.1z" fill="#ffc388"/><path d="m277.27 69.52c2.35-.82 5.08-2.59 9.27.18s5.46 10.45.46 12.3l-.95-2.77a2.8 2.8 0 0 0 .58-2 1.62 1.62 0 0 0 -1.94-1.51 4.25 4.25 0 0 1 -1.24-1.47c-.85-1.68-1.8-.85-3 .64s-3.88 1.94-5.2 1-.96-5.33 2.02-6.37z" fill="#663a12"/><path d="m268.39 90.25a101.46 101.46 0 0 1 8.86 7.09l4.33 9.32s-2.54 3.58-7.27 1.06c-3.36-1.79-8.66-8.31-11.2-12.2a9.62 9.62 0 0 1 5.28-5.27z" fill="#fcb749"/><path d="m300.28 123.16c.06-.64 1.06-.64 1 0l-4.55 48.52c-.06.64-1.06.64-1 0z" fill="#663a12"/><path d="m284.87 106s5-4.14 5-6-2.59-15.1 1.69-16.15 7.75 9 9 14.89-12.81 16.81-12.81 16.81" fill="#fcb749"/><path d="m266.37 59c-2.9-2.09-7.28-1.77-10.18.31l8.92 100.69 10.13-.9z" fill="#963626"/><ellipse cx="270.18" cy="159.56" fill="#963626" rx="5.08" ry="2.15" transform="matrix(.99608747 -.08837276 .08837276 .99608747 -13.04 24.49)"/><path d="m275.29 159.72s-1.15-2.46-5.18-1.92-5 2.38-5 2.38l6.16 19.09z" fill="#ffd8bd"/><path d="m271.3 179.27 1.85-9.08a3.65 3.65 0 0 0 -4.62.51z" fill="#653200"/><path d="m276.12 116.29-4.52.53s-3.65-.78-4.46.67c-.22.38 3.63.94 3.63.94s-5.54 1.46-5.2 2.55 4 3.2 4.72 3.39 7.71-5.37 7.71-5.37" fill="#ffc388"/><path d="m273.93 115.88c1.79-2.54 5.52-5 8.56-7.9 4.13-3.42 8.44-7.75 11.76-3.08 3.7 5.19-10.84 14.94-15.07 17.62a13.49 13.49 0 0 1 -5.25-6.64z" fill="#fcb749"/><path d="m62.49 162.13v21.22l24.4.94 14.07-11.04v-21.42" fill="#68e1fd"/><path d="m62.49 162.56v21.22l24.4.94 14.07-11.03v-21.43" fill="#0fb7ce" opacity=".86"/><path d="m101 151.83a37.83 37.83 0 0 0 -14-2.55c-12.75 0-23.23 5.64-24.44 12.85l24.6-.22z" fill="#68e1fd"/><path d="m87.1 161.91-.43 19.69 14.28-10.67.01-19.1z" fill="#68e1fd"/><path d="m91 194.87v5.51a31.9 31.9 0 0 0 12-3.67c5.3-3.14 6.5-5.88 6.82-8.41.05-.41.08-6.7.08-6.7" fill="#c90180"/><path d="m86.67 181.6 14.28-10.67s8.47 2.89 9 10.67-11.22 12.6-18.95 13.27z" fill="#f0008d"/><path d="m87.1 162.34-.43 19.69 14.28-10.67.01-19.1z" fill="#0fb7ce" opacity=".65"/><path d="m91.43 184.43v15.93a37.66 37.66 0 0 1 -19.91-2.94c-7.09-3.25-8.37-7.13-9-10v-16.88" fill="#edaf24"/><path d="m62.5 170.54h24.38l4.55 13.89s-12.64 1.68-22-4c-8.11-4.96-6.93-9.89-6.93-9.89z" fill="#ffcb44"/><g fill="#e6e6e6"><path d="m157 217.18 33.68 19.18a1.13 1.13 0 0 0 1.14-1.94l-33.68-19.18a1.13 1.13 0 0 0 -1.14 1.94z"/><path d="m163.18 214.07 33.68 19.18a1.13 1.13 0 0 0 1.14-1.95l-33.68-19.18a1.13 1.13 0 0 0 -1.14 1.94z"/><path d="m169.24 210.44 33.68 19.18a1.13 1.13 0 0 0 1.14-1.94l-33.68-19.18a1.13 1.13 0 0 0 -1.14 1.94z"/><path d="m204.29 187.94 33.71 19.17a1.13 1.13 0 0 0 1.14-1.94l-33.71-19.17a1.13 1.13 0 0 0 -1.14 1.94z"/><path d="m211.43 185 33.68 19.18a1.13 1.13 0 0 0 1.14-1.94l-33.68-19.18a1.13 1.13 0 0 0 -1.14 1.94z"/><path d="m217 181.23 33.68 19.18a1.13 1.13 0 0 0 1.14-1.94l-33.68-19.18a1.13 1.13 0 0 0 -1.14 1.94z"/><path d="m179.78 203.32c.53.26 32.11 18.57 32.11 18.57l16.52-9.82-31.47-18.45z" stroke="#e6e6e6" stroke-miterlimit="10" stroke-width=".75"/></g></svg>